# xmcd CD database file
#
# Track frame offsets:
#	150
#	20050
#	40067
#	58047
#	76275
#	99877
#	120867
#	142105
#	162500
#	182840
#	202122
#	221832
#	240405
#
# Disc length: 3488 seconds
#
# Revision: 0
# Processed by: cddbd v1.5.1PL0 Copyright (c) Steve Scherf et al.
# Submitted via: CDex 1.51
#
DISCID=b30d9e0d
DTITLE=大川栄作 - 出で湯橋 Disc1
DYEAR=1994
DGENRE=Country
TTITLE0=出で湯橋
TTITLE1=夢の露
TTITLE2=雪国本線
TTITLE3=酔いぐれすずめ
TTITLE4=小諸情歌
TTITLE5=絆川
TTITLE6=炎（ひ）の螢
TTITLE7=雀のお宿
TTITLE8=みれん雨
TTITLE9=わたしのソウル
TTITLE10=男の氷東橋(ヨンドンキヨ)
TTITLE11=男の雨宿り
TTITLE12=人生を時の流れに
EXTD=YEAR: 1994
EXTT0=
EXTT1=
EXTT2=
EXTT3=
EXTT4=
EXTT5=
EXTT6=
EXTT7=
EXTT8=
EXTT9=
EXTT10=
EXTT11=
EXTT12=
PLAYORDER=
